# xmcd
# 
# Track frame offsets:
#     150
#     12441
#     31677
#     57439
#     77944
#     93828
#     121626
#     139485
#     158441
# 
# Disc length: 2419
# 
# Revision: 0
# Processed by: cddbd v1.5.2PL0 Copyright (c) Steve Scherf et al.
# Submitted via: fre:ac v1.0.17
# 
DISCID=65097109
DTITLE=Div Artister - Super Blues
DYEAR=1967
DGENRE=Blues
TTITLE0=Long Distance Call
TTITLE1=Who Do You Love?
TTITLE2=I'm A Man
TTITLE3=Bo Diddley
TTITLE4=You Can't Judge A Book By It's Cover
TTITLE5=I Just Want To Make Love To You
TTITLE6=My Babe
TTITLE7=You Don't Love Me
TTITLE8=Super Blues
EXTD=
EXTT0=
EXTT1=
EXTT2=
EXTT3=
EXTT4=
EXTT5=
EXTT6=
EXTT7=
EXTT8=
PLAYORDER=
